<svg width="158" height="158" viewBox="0 0 158 158" fill="none" xmlns="http://www.w3.org/2000/svg">
<rect x="4" width="150" height="150" rx="75" fill="white"/>
<g filter="url(#filter0_d)">
<path d="M154 75C154 116.421 120.421 150 79 150C37.5786 150 4 116.421 4 75C4 33.5786 37.5786 0 79 0C120.421 0 154 33.5786 154 75ZM9.73477 75C9.73477 113.254 40.7459 144.265 79 144.265C117.254 144.265 148.265 113.254 148.265 75C148.265 36.7459 117.254 5.73477 79 5.73477C40.7459 5.73477 9.73477 36.7459 9.73477 75Z" fill="#9E9E9E" fill-opacity="0.57"/>
</g>
<g filter="url(#filter1_d)">
<path d="M60.5364 124.748C44.0935 125.115 31.0453 95.4278 29.1165 83.246C72.6343 142.777 67.1175 11.9004 68.2087 24.5574C69.2999 37.2145 81.0899 124.288 60.5364 124.748Z" fill="#D7DB23"/>
<path d="M110.973 77.3388C74.0778 60.3125 93.4089 38.0364 115.172 29.5123C119.53 28.5648 103.103 29.9039 86.9127 45.0888C66.6753 64.07 94.5492 84.4765 102.652 89.8372C120.892 101.905 67.6155 125.369 70.0971 126.608C72.5786 127.847 173.075 105.998 110.973 77.3388Z" fill="#9F9F9F"/>
</g>
<defs>
<filter id="filter0_d" x="0" y="0" width="158" height="158" filterUnits="userSpaceOnUse" color-interpolation-filters="sRGB">
<feFlood flood-opacity="0" result="BackgroundImageFix"/>
<feColorMatrix in="SourceAlpha" type="matrix" values="0 0 0 0 0 0 0 0 0 0 0 0 0 0 0 0 0 0 127 0"/>
<feOffset dy="4"/>
<feGaussianBlur stdDeviation="2"/>
<feColorMatrix type="matrix" values="0 0 0 0 0 0 0 0 0 0 0 0 0 0 0 0 0 0 0.25 0"/>
<feBlend mode="normal" in2="BackgroundImageFix" result="effect1_dropShadow"/>
<feBlend mode="normal" in="SourceGraphic" in2="effect1_dropShadow" result="shape"/>
</filter>
<filter id="filter1_d" x="17" y="18" width="124.105" height="121.86" filterUnits="userSpaceOnUse" color-interpolation-filters="sRGB">
<feFlood flood-opacity="0" result="BackgroundImageFix"/>
<feColorMatrix in="SourceAlpha" type="matrix" values="0 0 0 0 0 0 0 0 0 0 0 0 0 0 0 0 0 0 127 0"/>
<feOffset dy="4"/>
<feGaussianBlur stdDeviation="2"/>
<feColorMatrix type="matrix" values="0 0 0 0 0 0 0 0 0 0 0 0 0 0 0 0 0 0 0.25 0"/>
<feBlend mode="normal" in2="BackgroundImageFix" result="effect1_dropShadow"/>
<feBlend mode="normal" in="SourceGraphic" in2="effect1_dropShadow" result="shape"/>
</filter>
</defs>
</svg>
